<svg width="15" height="17" viewBox="0 0 15 17" fill="none" xmlns="http://www.w3.org/2000/svg">
<path d="M11.9649 6H10.3749V1C10.3749 0.45 9.92494 0 9.37494 0L5.37494 0C4.82494 0 4.37494 0.45 4.37494 1V6H2.78494C1.89494 6 1.44494 7.08 2.07494 7.71L6.66494 12.3C7.05494 12.69 7.68494 12.69 8.07494 12.3L12.6649 7.71C13.2949 7.08 12.8549 6 11.9649 6ZM0.374939 16C0.374939 16.55 0.824939 17 1.37494 17H13.3749C13.9249 17 14.3749 16.55 14.3749 16C14.3749 15.45 13.9249 15 13.3749 15H1.37494C0.824939 15 0.374939 15.45 0.374939 16Z" fill="#2F855A"/>
</svg>
