<svg width="20" height="20" viewBox="0 0 20 20" fill="none" xmlns="http://www.w3.org/2000/svg">
<g clip-path="url(#clip0_711_5103)">
<path d="M18.3438 2.72559L13.4894 2.72559C12.678 2.72504 11.8905 3.00088 11.2568 3.50768C10.6231 4.01448 10.181 4.72201 10.0031 5.51371C9.8249 4.72222 9.3826 4.01495 8.749 3.50823C8.11539 3.0015 7.3282 2.72549 6.51689 2.72559H1.66626C1.22423 2.72575 0.800353 2.90142 0.487789 3.21399C0.175225 3.52655 -0.000444703 3.95043 -0.000610352 4.39246L-0.000610352 12.9275C-0.000444703 13.3695 0.175225 13.7934 0.487789 14.1059C0.800353 14.4185 1.22423 14.5942 1.66626 14.5943H4.78064C8.32939 14.5943 9.38814 15.4412 9.89501 17.1987C9.91939 17.2962 10.0756 17.2962 10.1031 17.1987C10.6138 15.4418 11.6725 14.5943 15.2175 14.5943L18.3319 14.5943C18.7739 14.5942 19.1978 14.4185 19.5104 14.1059C19.8229 13.7934 19.9986 13.3695 19.9988 12.9275V4.39621C19.9988 3.95567 19.8247 3.53297 19.5145 3.22018C19.2043 2.90738 18.783 2.72984 18.3425 2.72621L18.3438 2.72559ZM8.40251 11.9406C8.40268 11.9566 8.39966 11.9724 8.39363 11.9872C8.38759 12.002 8.37867 12.0154 8.36737 12.0267C8.35608 12.038 8.34265 12.0469 8.32786 12.0529C8.31308 12.059 8.29723 12.062 8.28126 12.0618H2.71501C2.69907 12.0619 2.68326 12.0588 2.66852 12.0528C2.65377 12.0467 2.64037 12.0378 2.62909 12.0265C2.61782 12.0152 2.60889 12.0018 2.60283 11.9871C2.59676 11.9723 2.59368 11.9565 2.59376 11.9406V11.1456C2.59376 11.08 2.64564 11.0243 2.71501 11.0243H8.28439C8.35001 11.0243 8.40564 11.0762 8.40564 11.1456V11.9406H8.40251ZM8.40251 9.82621C8.4026 9.84216 8.39952 9.85796 8.39345 9.87271C8.38739 9.88746 8.37846 9.90086 8.36719 9.91213C8.35591 9.92341 8.34251 9.93234 8.32776 9.9384C8.31301 9.94446 8.29721 9.94754 8.28126 9.94746H2.71501C2.69907 9.94754 2.68326 9.94446 2.66852 9.9384C2.65377 9.93234 2.64037 9.92341 2.62909 9.91213C2.61782 9.90086 2.60889 9.88746 2.60283 9.87271C2.59676 9.85796 2.59368 9.84216 2.59376 9.82621V9.03121C2.59376 8.96496 2.64564 8.90996 2.71501 8.90996H8.28439C8.35001 8.90996 8.40564 8.96184 8.40564 9.03121V9.82621H8.40251ZM8.40251 7.71184C8.4026 7.72778 8.39952 7.74359 8.39345 7.75833C8.38739 7.77308 8.37846 7.78648 8.36719 7.79776C8.35591 7.80903 8.34251 7.81796 8.32776 7.82403C8.31301 7.83009 8.29721 7.83317 8.28126 7.83309L2.71501 7.83309C2.69907 7.83317 2.68326 7.83009 2.66852 7.82403C2.65377 7.81796 2.64037 7.80903 2.62909 7.79776C2.61782 7.78648 2.60889 7.77308 2.60283 7.75833C2.59676 7.74359 2.59368 7.72778 2.59376 7.71184V6.91684C2.59376 6.85121 2.64564 6.79559 2.71501 6.79559L8.28439 6.79559C8.35001 6.79559 8.40564 6.84746 8.40564 6.91684V7.71184H8.40251ZM17.4063 11.9375C17.4063 11.9534 17.4033 11.9692 17.3972 11.984C17.3911 11.9987 17.3822 12.0121 17.3709 12.0234C17.3597 12.0347 17.3463 12.0436 17.3315 12.0497C17.3168 12.0557 17.301 12.0588 17.285 12.0587L11.7188 12.0587C11.7028 12.0588 11.687 12.0557 11.6723 12.0497C11.6575 12.0436 11.6441 12.0347 11.6328 12.0234C11.6216 12.0121 11.6126 11.9987 11.6066 11.984C11.6005 11.9692 11.5974 11.9534 11.5975 11.9375V11.1425C11.5975 11.0768 11.6494 11.0212 11.7188 11.0212L17.2881 11.0212C17.3544 11.0212 17.4094 11.0731 17.4094 11.1425V11.9375H17.4063ZM17.4063 9.82309C17.4064 9.83906 17.4034 9.8549 17.3974 9.86968C17.3913 9.88447 17.3824 9.8979 17.3711 9.9092C17.3598 9.92049 17.3464 9.92941 17.3316 9.93545C17.3168 9.94148 17.301 9.9445 17.285 9.94434H11.7188C11.7028 9.94442 11.687 9.94134 11.6723 9.93528C11.6575 9.92921 11.6441 9.92028 11.6328 9.90901C11.6216 9.89773 11.6126 9.88433 11.6066 9.86958C11.6005 9.85484 11.5974 9.83903 11.5975 9.82309V9.02809C11.5975 8.96246 11.6494 8.90684 11.7188 8.90684H17.2881C17.3544 8.90684 17.4094 8.95871 17.4094 9.02809V9.82309H17.4063ZM17.4063 7.70809C17.4063 7.72403 17.4033 7.73984 17.3972 7.75458C17.3911 7.76933 17.3822 7.78273 17.3709 7.79401C17.3597 7.80528 17.3463 7.81421 17.3315 7.82028C17.3168 7.82634 17.301 7.82942 17.285 7.82934H11.7188C11.7028 7.82942 11.687 7.82634 11.6723 7.82028C11.6575 7.81421 11.6441 7.80528 11.6328 7.79401C11.6216 7.78273 11.6126 7.76933 11.6066 7.75458C11.6005 7.73984 11.5974 7.72403 11.5975 7.70809V6.91621C11.5975 6.85059 11.6494 6.79496 11.7188 6.79496H17.2881C17.3544 6.79496 17.4094 6.84684 17.4094 6.91621V7.70809H17.4063Z" fill="white"/>
</g>
<defs>
<clipPath id="clip0_711_5103">
<rect width="20" height="20" fill="white"/>
</clipPath>
</defs>
</svg>
