<svg width="18" height="14" viewBox="0 0 18 14" fill="none" xmlns="http://www.w3.org/2000/svg">
<path fill-rule="evenodd" clip-rule="evenodd" d="M0.22261 13C0.22261 12.8011 0.303686 12.6103 0.448001 12.4697C0.592317 12.329 0.78805 12.25 0.992143 12.25L16.3828 12.25C16.5869 12.25 16.7826 12.329 16.9269 12.4697C17.0712 12.6103 17.1523 12.8011 17.1523 13C17.1523 13.1989 17.0712 13.3897 16.9269 13.5303C16.7826 13.671 16.5869 13.75 16.3828 13.75L0.992143 13.75C0.78805 13.75 0.592317 13.671 0.448001 13.5303C0.303686 13.3897 0.22261 13.1989 0.22261 13ZM0.22261 7C0.22261 6.80109 0.303686 6.61032 0.448001 6.46967C0.592317 6.32902 0.78805 6.25 0.992143 6.25L16.3828 6.25C16.5869 6.25 16.7826 6.32902 16.9269 6.46967C17.0712 6.61032 17.1523 6.80109 17.1523 7C17.1523 7.19891 17.0712 7.38968 16.9269 7.53033C16.7826 7.67098 16.5869 7.75 16.3828 7.75L0.992143 7.75C0.78805 7.75 0.592317 7.67098 0.448001 7.53033C0.303686 7.38968 0.22261 7.19891 0.22261 7ZM0.22261 1C0.22261 0.801088 0.303686 0.610322 0.448001 0.46967C0.592317 0.329018 0.78805 0.25 0.992143 0.25L16.3828 0.25C16.5869 0.25 16.7826 0.329018 16.9269 0.46967C17.0712 0.610322 17.1523 0.801088 17.1523 1C17.1523 1.19891 17.0712 1.38968 16.9269 1.53033C16.7826 1.67098 16.5869 1.75 16.3828 1.75L0.992143 1.75C0.78805 1.75 0.592317 1.67098 0.448001 1.53033C0.303686 1.38968 0.22261 1.19891 0.22261 1Z" fill="#2F855A"/>
</svg>
