<svg width="125" height="23" viewBox="0 0 125 23" fill="none" xmlns="http://www.w3.org/2000/svg">
<defs>
<linearGradient id="paint0_linear_711_5101" x1="105" y1="30" x2="-0.914138" y2="10.1876" gradientUnits="userSpaceOnUse">
<stop stop-color="#22543D"/>
<stop offset="1" stop-color="#68D391"/>
</linearGradient>
</defs>
<path d="M13.8424 3.152V6.44H9.37837L9.37837 20H5.27437L5.27437 6.44H0.810375L0.810375 3.152H13.8424ZM15.0861 13.28C15.0861 11.904 15.3421 10.696 15.8541 9.656C16.3821 8.616 17.0941 7.816 17.9901 7.256C18.8861 6.696 19.8861 6.416 20.9901 6.416C21.9341 6.416 22.7581 6.608 23.4621 6.992C24.1821 7.376 24.7341 7.88 25.1181 8.504V6.608H29.2221V20H25.1181V18.104C24.7181 18.728 24.1581 19.232 23.4381 19.616C22.7341 20 21.9101 20.192 20.9661 20.192C19.8781 20.192 18.8861 19.912 17.9901 19.352C17.0941 18.776 16.3821 17.968 15.8541 16.928C15.3421 15.872 15.0861 14.656 15.0861 13.28ZM25.1181 13.304C25.1181 12.28 24.8301 11.472 24.2541 10.88C23.6941 10.288 23.0061 9.992 22.1901 9.992C21.3741 9.992 20.6781 10.288 20.1021 10.88C19.5421 11.456 19.2621 12.256 19.2621 13.28C19.2621 14.304 19.5421 15.12 20.1021 15.728C20.6781 16.32 21.3741 16.616 22.1901 16.616C23.0061 16.616 23.6941 16.32 24.2541 15.728C24.8301 15.136 25.1181 14.328 25.1181 13.304ZM40.4231 6.464C41.9591 6.464 43.1911 6.976 44.1191 8C45.0471 9.008 45.5111 10.4 45.5111 12.176V20H41.4311V12.728C41.4311 11.832 41.1991 11.136 40.7351 10.64C40.2711 10.144 39.6471 9.896 38.8631 9.896C38.0791 9.896 37.4551 10.144 36.9911 10.64C36.5271 11.136 36.2951 11.832 36.2951 12.728V20H32.1911V2.24H36.2951V8.408C36.7111 7.816 37.2791 7.344 37.9991 6.992C38.7191 6.64 39.5271 6.464 40.4231 6.464ZM55.083 10.016H52.875V20H48.771V10.016H47.283V6.608L48.771 6.608V6.224C48.771 4.576 49.243 3.328 50.187 2.48C51.131 1.616 52.515 1.184 54.339 1.184C54.643 1.184 54.867 1.192 55.011 1.208V4.688C54.227 4.64 53.675 4.752 53.355 5.024C53.035 5.296 52.875 5.784 52.875 6.488V6.608H55.083V10.016ZM59.0754 5.216C58.3554 5.216 57.7634 5.008 57.2994 4.592C56.8514 4.16 56.6274 3.632 56.6274 3.008C56.6274 2.368 56.8514 1.84 57.2994 1.424C57.7634 0.991998 58.3554 0.775998 59.0754 0.775998C59.7794 0.775998 60.3554 0.991998 60.8034 1.424C61.2674 1.84 61.4994 2.368 61.4994 3.008C61.4994 3.632 61.2674 4.16 60.8034 4.592C60.3554 5.008 59.7794 5.216 59.0754 5.216ZM61.1154 6.608V20H57.0114V6.608H61.1154ZM67.9296 16.616H73.7376V20H63.3456V16.736L68.9136 9.992H63.3936V6.608H73.6176V9.872L67.9296 16.616ZM84.2278 6.464C85.7638 6.464 86.9958 6.976 87.9238 8C88.8518 9.008 89.3158 10.4 89.3158 12.176V20H85.2358V12.728C85.2358 11.832 85.0038 11.136 84.5398 10.64C84.0758 10.144 83.4518 9.896 82.6678 9.896C81.8838 9.896 81.2598 10.144 80.7958 10.64C80.3318 11.136 80.0998 11.832 80.0998 12.728V20H75.9958V2.24L80.0998 2.24V8.408C80.5158 7.816 81.0838 7.344 81.8038 6.992C82.5238 6.64 83.3318 6.464 84.2278 6.464ZM104.168 22.88L102.008 19.976C101.368 20.104 100.744 20.168 100.136 20.168C98.5517 20.168 97.0957 19.8 95.7677 19.064C94.4557 18.328 93.4077 17.304 92.6237 15.992C91.8557 14.664 91.4717 13.176 91.4717 11.528C91.4717 9.88 91.8557 8.4 92.6237 7.088C93.4077 5.776 94.4557 4.752 95.7677 4.016C97.0957 3.28 98.5517 2.912 100.136 2.912C101.72 2.912 103.168 3.28 104.48 4.016C105.808 4.752 106.848 5.776 107.6 7.088C108.368 8.4 108.752 9.88 108.752 11.528C108.752 12.968 108.456 14.288 107.864 15.488C107.288 16.672 106.48 17.656 105.44 18.44L109.136 22.88H104.168ZM95.6717 11.528C95.6717 13.016 96.0717 14.208 96.8717 15.104C97.6877 15.984 98.7757 16.424 100.136 16.424C101.48 16.424 102.552 15.976 103.352 15.08C104.168 14.184 104.576 13 104.576 11.528C104.576 10.04 104.168 8.856 103.352 7.976C102.552 7.08 101.48 6.632 100.136 6.632C98.7757 6.632 97.6877 7.072 96.8717 7.952C96.0717 8.832 95.6717 10.024 95.6717 11.528ZM124.306 6.608V20H120.202V18.176C119.786 18.768 119.218 19.248 118.498 19.616C117.794 19.968 117.01 20.144 116.146 20.144C115.122 20.144 114.218 19.92 113.434 19.472C112.65 19.008 112.042 18.344 111.61 17.48C111.178 16.616 110.962 15.6 110.962 14.432V6.608L115.042 6.608V13.88C115.042 14.776 115.274 15.472 115.738 15.968C116.202 16.464 116.826 16.712 117.61 16.712C118.41 16.712 119.042 16.464 119.506 15.968C119.97 15.472 120.202 14.776 120.202 13.88V6.608H124.306Z" fill="url(#paint0_linear_711_5101)"/>

</svg>
